<svg width="96" height="37" viewBox="0 0 96 37" fill="none" xmlns="http://www.w3.org/2000/svg">
<path fill-rule="evenodd" clip-rule="evenodd" d="M44.8299 2.58002C44.8299 3.0903 44.6786 3.58911 44.3951 4.01339C44.1116 4.43766 43.7087 4.76835 43.2372 4.96363C42.7658 5.1589 42.2471 5.21 41.7466 5.11045C41.2461 5.0109 40.7864 4.76518 40.4256 4.40436C40.0648 4.04354 39.819 3.58382 39.7195 3.08335C39.6199 2.58288 39.671 2.06413 39.8663 1.5927C40.0616 1.12127 40.3923 0.718328 40.8165 0.434834C41.2408 0.15134 41.7396 1.95338e-05 42.2499 1.95338e-05C42.5891 -0.00130282 42.9252 0.0645258 43.2388 0.193715C43.5524 0.322903 43.8374 0.512897 44.0772 0.752736C44.317 0.992575 44.507 1.27751 44.6362 1.59113C44.7654 1.90475 44.8312 2.24084 44.8299 2.58002Z" fill="#13100D"/>
<path fill-rule="evenodd" clip-rule="evenodd" d="M53.5298 17.5604L47.8898 11.9204L42.2498 17.5604L36.6198 11.9204L31.9098 16.6204L30.0498 14.7604L36.6198 8.19043L42.2498 13.8304L47.8898 8.19043L53.5298 13.8304L59.1698 8.19043L65.7398 14.7604L63.8698 16.6204L59.1698 11.9204L53.5298 17.5604Z" fill="#13100D"/>
<path fill-rule="evenodd" clip-rule="evenodd" d="M5.05995 26.8099C6.11802 26.7404 7.16362 27.0708 7.98962 27.7357C8.81563 28.4005 9.36179 29.3514 9.51994 30.3999H7.12994C6.99905 29.9672 6.71968 29.5945 6.34102 29.3476C5.96236 29.1006 5.50871 28.9952 5.05995 29.0499C4.72699 29.0436 4.39651 29.1084 4.09061 29.24C3.7847 29.3716 3.5104 29.567 3.28606 29.8131C3.06171 30.0592 2.89249 30.3504 2.78969 30.6671C2.68689 30.9839 2.65289 31.3189 2.68996 31.6499C2.66824 31.9767 2.7131 32.3046 2.82182 32.6135C2.93054 32.9225 3.10085 33.2062 3.32243 33.4474C3.54402 33.6887 3.81227 33.8824 4.11093 34.0169C4.40959 34.1514 4.73246 34.2238 5.05995 34.2299C5.53211 34.2676 6.00234 34.1366 6.3869 33.8601C6.77147 33.5835 7.0454 33.1795 7.15994 32.7199H9.54996C9.43117 33.8048 8.89763 34.8018 8.06087 35.5026C7.2241 36.2033 6.14888 36.5535 5.05995 36.4799C4.40651 36.5096 3.75382 36.4066 3.14131 36.177C2.52881 35.9474 1.9692 35.5961 1.49628 35.1442C1.02335 34.6923 0.646941 34.1492 0.389771 33.5478C0.1326 32.9463 0 32.299 0 31.6449C0 30.9908 0.1326 30.3434 0.389771 29.742C0.646941 29.1406 1.02335 28.5975 1.49628 28.1456C1.9692 27.6937 2.52881 27.3423 3.14131 27.1128C3.75382 26.8832 4.40651 26.7802 5.05995 26.8099Z" fill="#13100D"/>
<path fill-rule="evenodd" clip-rule="evenodd" d="M17.0797 31.3903C17.2244 31.3803 17.3657 31.3413 17.495 31.2756C17.6243 31.2098 17.739 31.1187 17.8324 31.0077C17.9257 30.8966 17.9957 30.7679 18.0382 30.6291C18.0807 30.4904 18.0948 30.3446 18.0797 30.2003C18.1014 30.057 18.0918 29.9106 18.0513 29.7714C18.0109 29.6322 17.9407 29.5034 17.8456 29.3941C17.7505 29.2847 17.6327 29.1973 17.5005 29.1379C17.3682 29.0785 17.2246 29.0487 17.0797 29.0503H15.3597V31.3903H17.0797ZM20.9597 36.0303V36.3803H18.3297L16.6997 33.3803H15.3997V36.3803H12.9097V26.8903H17.0897C17.54 26.8664 17.9903 26.9365 18.412 27.0961C18.8338 27.2557 19.2177 27.5014 19.5394 27.8174C19.861 28.1334 20.1134 28.5129 20.2805 28.9318C20.4475 29.3506 20.5256 29.7996 20.5097 30.2503C20.5194 30.7922 20.3959 31.3281 20.15 31.8111C19.9042 32.2941 19.5435 32.7093 19.0997 33.0203L20.9597 36.0303Z" fill="#13100D"/>
<path fill-rule="evenodd" clip-rule="evenodd" d="M28.5398 34.2298C28.8694 34.2279 29.1951 34.1584 29.4968 34.0256C29.7985 33.8927 30.0697 33.6994 30.2937 33.4576C30.5178 33.2158 30.6898 32.9306 30.7992 32.6197C30.9086 32.3087 30.953 31.9786 30.9298 31.6498C30.8947 31.184 30.7245 30.7385 30.44 30.368C30.1554 29.9975 29.769 29.7181 29.328 29.5641C28.8869 29.41 28.4106 29.388 27.9572 29.5008C27.5039 29.6135 27.0933 29.8561 26.7759 30.1988C26.4584 30.5415 26.2479 30.9694 26.17 31.43C26.0922 31.8906 26.1505 32.364 26.3378 32.7919C26.5251 33.2199 26.8332 33.5839 27.2243 33.8393C27.6154 34.0947 28.0726 34.2304 28.5398 34.2298ZM28.5398 36.5598C27.8884 36.5934 27.2372 36.4891 26.629 36.2536C26.0207 36.018 25.4691 35.6566 25.0103 35.1931C24.5514 34.7295 24.1957 34.1742 23.9664 33.5636C23.7371 32.953 23.6394 32.3008 23.6798 31.6498C23.6916 30.6884 23.9878 29.752 24.5309 28.9587C25.0741 28.1653 25.8399 27.5505 26.732 27.1917C27.624 26.8329 28.6022 26.7461 29.5435 26.9424C30.4847 27.1386 31.3468 27.6091 32.021 28.2945C32.6953 28.9799 33.1516 29.8496 33.3325 30.7939C33.5133 31.7382 33.4106 32.7149 33.0372 33.601C32.6639 34.487 32.0366 35.2427 31.2345 35.7728C30.4323 36.3029 29.4912 36.5837 28.5298 36.5798L28.5398 36.5598Z" fill="#13100D"/>
<path fill-rule="evenodd" clip-rule="evenodd" d="M41.2096 26.8103C42.2672 26.7431 43.3116 27.0744 44.1371 27.7389C44.9626 28.4033 45.5093 29.3528 45.6696 30.4003H43.2796C43.147 29.9687 42.8673 29.5972 42.489 29.3505C42.1108 29.1039 41.6581 28.9976 41.2096 29.0503C40.8767 29.044 40.5462 29.1088 40.2403 29.2404C39.9344 29.372 39.6601 29.5674 39.4357 29.8135C39.2114 30.0596 39.0422 30.3508 38.9394 30.6675C38.8366 30.9843 38.8026 31.3194 38.8396 31.6503C38.8179 31.9771 38.8628 32.305 38.9715 32.6139C39.0802 32.9229 39.2505 33.2066 39.4721 33.4478C39.6937 33.6891 39.962 33.8828 40.2606 34.0173C40.5593 34.1518 40.8821 34.2242 41.2096 34.2303C41.6818 34.268 42.152 34.137 42.5366 33.8605C42.9211 33.5839 43.1951 33.1799 43.3096 32.7203H45.7296C45.6108 33.8052 45.0773 34.8022 44.2405 35.503C43.4038 36.2037 42.3286 36.5539 41.2396 36.4803C40.5862 36.51 39.9335 36.407 39.321 36.1774C38.7085 35.9478 38.1489 35.5965 37.6759 35.1446C37.203 34.6927 36.8266 34.1496 36.5694 33.5482C36.3123 32.9467 36.1797 32.2994 36.1797 31.6453C36.1797 30.9912 36.3123 30.3438 36.5694 29.7424C36.8266 29.141 37.203 28.5979 37.6759 28.146C38.1489 27.6941 38.7085 27.3428 39.321 27.1132C39.9335 26.8836 40.5862 26.7806 41.2396 26.8103H41.2096Z" fill="#13100D"/>
<path fill-rule="evenodd" clip-rule="evenodd" d="M53.4199 34.2303C54.0649 34.1734 54.6653 33.877 55.1026 33.3994C55.5399 32.9219 55.7825 32.2978 55.7825 31.6503C55.7825 31.0027 55.5399 30.3787 55.1026 29.9011C54.6653 29.4235 54.0649 29.1271 53.4199 29.0703C52.7748 29.1271 52.1745 29.4235 51.7371 29.9011C51.2998 30.3787 51.0572 31.0027 51.0572 31.6503C51.0572 32.2978 51.2998 32.9219 51.7371 33.3994C52.1745 33.877 52.7748 34.1734 53.4199 34.2303ZM53.4199 36.5603C52.7693 36.5925 52.1193 36.487 51.5122 36.2508C50.9052 36.0147 50.3548 35.6531 49.8971 35.1896C49.4393 34.7262 49.0845 34.1715 48.8558 33.5616C48.6271 32.9517 48.5297 32.3004 48.5699 31.6503C48.5778 30.688 48.8706 29.7496 49.4114 28.9536C49.9522 28.1576 50.7167 27.5396 51.6084 27.1777C52.5001 26.8159 53.479 26.7263 54.4216 26.9203C55.3642 27.1144 56.2281 27.5833 56.9044 28.2679C57.5807 28.9526 58.039 29.8222 58.2214 30.7671C58.4038 31.712 58.3022 32.6898 57.9294 33.5769C57.5566 34.4641 56.9293 35.221 56.1267 35.7519C55.3241 36.2829 54.3822 36.5642 53.4199 36.5603Z" fill="#13100D"/>
<path fill-rule="evenodd" clip-rule="evenodd" d="M60.8296 29.0704V26.9004H67.8796V29.0704H65.5596V36.4004H63.1596V29.0704H60.8296Z" fill="#13100D"/>
<path fill-rule="evenodd" clip-rule="evenodd" d="M73.0596 33.1396H75.0596L74.0596 30.8496L73.0596 33.1396ZM72.2596 35.2196L71.7197 36.3996H69.1396V36.0596L73.4796 26.8096H74.6196L78.9296 36.0596V36.3996H76.3696L75.8096 35.2196H72.2596Z" fill="#13100D"/>
<path fill-rule="evenodd" clip-rule="evenodd" d="M85.88 31.3903C86.0247 31.3803 86.1659 31.3413 86.2953 31.2756C86.4246 31.2098 86.5394 31.1187 86.6327 31.0077C86.726 30.8966 86.796 30.7679 86.8385 30.6291C86.881 30.4904 86.8951 30.3446 86.88 30.2003C86.9017 30.057 86.8921 29.9106 86.8517 29.7714C86.8112 29.6322 86.741 29.5034 86.6459 29.3941C86.5508 29.2847 86.433 29.1973 86.3008 29.1379C86.1685 29.0785 86.0249 29.0487 85.88 29.0503H84.15V31.3903H85.88ZM89.76 36.0303V36.3803H87.12L85.5 33.3803H84.19V36.3803H81.73V26.8903H85.91C86.3603 26.8664 86.8106 26.9365 87.2324 27.0961C87.6541 27.2557 88.038 27.5014 88.3597 27.8174C88.6813 28.1334 88.9337 28.5129 89.1008 28.9318C89.2678 29.3506 89.3459 29.7996 89.33 30.2503C89.3397 30.7922 89.2162 31.3281 88.9703 31.8111C88.7245 32.2941 88.3638 32.7093 87.92 33.0203L89.76 36.0303Z" fill="#13100D"/>
<path fill-rule="evenodd" clip-rule="evenodd" d="M95.5796 34.3904V28.9104V26.9004H93.0996V28.9104V34.3904V36.4004H95.5796V34.3904Z" fill="#13100D"/>
</svg>
